<?xml version="1.0" encoding="utf-8"?>
<!-- Generator: Adobe Illustrator 19.2.1, SVG Export Plug-In . SVG Version: 6.00 Build 0)  -->
<svg version="1.1" id="Layer_1" xmlns="http://www.w3.org/2000/svg" xmlns:xlink="http://www.w3.org/1999/xlink" x="0px" y="0px"
	 viewBox="0 0 216 72" style="enable-background:new 0 0 216 72;" xml:space="preserve">
<style type="text/css">
	.st0{fill:#FFFFFF;}
	.st1{fill:#231F20;}
	.st2{fill:#F48120;}
</style>
<g>
	<g>
		<g>
			<g>
				<g>
					<g>
						<g>
							<g>
								<path class="st0" d="M210.6,31.8c0,3.8-3.2,7-7,7c0,0,0,0,0,0c-0.9,0-1.7-0.1-2.4-0.4c0.3,0.9,0.5,1.9,0.5,2.8
									c0,1.6-0.4,3.1-1.2,4.5c-0.3,0.4-0.6,0.9-0.9,1.3c0.6,0.3,1.1,0.8,1.5,1.4c0.7,1.2,0.8,2.6,0.2,3.8c-0.2,0.3-0.5,1.1-1,2.2
									c0,0-0.4,0.8-0.5,1.1c-0.2,0.5-0.4,0.9-0.6,1.2c-1,2.1-1.6,2.9-2,3.4c-0.8,0.8-2.1,1.7-4.3,1.7c-0.2,0-0.4,0-0.6,0
									c-0.1,0-0.2,0-0.3,0c-0.2,0-0.4-0.1-0.7-0.1c-1.1-0.2-2-1-2.6-1.9c-0.3,0.1-0.6,0.2-0.8,0.3c-0.2,0-0.5,0.1-0.7,0.1
									c0,0-0.1,0-0.1,0c-0.3,0-0.5,0-0.8,0c-1.7,0-3.1-0.5-4.1-1.6c-0.2-0.3-0.5-0.6-0.6-0.9c-0.3,0.3-0.6,0.6-1,0.8
									c-0.9,0.6-1.8,1-2.9,1.2c-0.5,0.1-1,0.1-1.6,0.1c-1.8,0-3.4-0.6-4.6-1.6c-0.3-0.2-0.5-0.4-0.7-0.7c-0.7,1.2-2,2.1-3.5,2.1
									h-1.2c-1,0-2-0.4-2.7-1.1c-0.5,0.5-1.2,0.8-1.9,1c-0.3,0.1-0.6,0.1-0.7,0.1c-0.1,0-0.1,0-0.2,0c-0.2,0-0.4,0-0.6,0
									c-0.5,0-1-0.1-1.5-0.2c-0.7,0.2-1.4,0.3-2.1,0.3c-1.5,0-2.8-0.4-3.9-1.2c-0.3-0.2-0.6-0.5-0.8-0.7c-0.2,0.2-0.5,0.4-0.8,0.6
									c-1.2,0.9-2.6,1.3-4.5,1.3c-2,0-3.6-0.5-4.7-1.5c-1.3-1-2-2.5-2.1-4.1c0-0.6,0.1-1.1,0.2-1.6c0-0.2-0.1-0.5-0.1-0.7
									c0-0.5,0.1-1.1,0.2-1.5h-2.4c0,0,0,0-0.1,0c0,0-0.1,0-0.1,0H134c0.2,0.6,0.3,1.2,0.3,1.9v3.4c0,2.2-1.8,4-4,4h-1.2
									c-0.6,0-1.1-0.1-1.6-0.4c-0.5,0.2-1.1,0.4-1.6,0.4h-1.2c-1,0-1.8-0.3-2.5-0.9c-0.5,0.4-1.1,0.7-1.8,0.9l-0.1,0
									c-0.3,0.1-0.5,0.1-0.6,0.1c-0.1,0-0.2,0-0.2,0c-0.2,0-0.4,0-0.6,0c-0.5,0-1-0.1-1.5-0.2c-0.7,0.2-1.4,0.3-2.1,0.3
									c-1.5,0-2.8-0.4-3.9-1.2c-0.2-0.1-0.4-0.3-0.6-0.5c-0.7,0.9-1.8,1.5-3.1,1.5h-1.2c-0.6,0-1.1-0.1-1.6-0.4
									c-0.5,0.2-1.1,0.4-1.6,0.4H102c-1,0-1.9-0.4-2.5-0.9c-0.5,0.4-1.1,0.7-1.8,0.9c-0.3,0.1-0.5,0.1-0.8,0.1c-0.3,0-0.6,0-0.8,0
									c-2.1,0-3.3-0.8-4-1.6c-0.9-0.9-1.4-2.2-1.4-3.5v-0.9c-0.6-0.7-0.9-1.6-0.9-2.6v-0.7c0-0.4,0.1-0.8,0.2-1.1
									c-1.4,0.7-3.1,1.2-5,1.4c0.1,0.2,0.1,0.4,0.2,0.6c0.2,0.6,0.2,1.2,0.2,2.1c0,0.3,0,0.6-0.1,0.9c0,0.1,0,0.3,0,0.4
									c-0.1,0.8-0.5,1.6-1,2.3c-0.4,0.6-0.9,1.1-1.5,1.5c-0.8,0.6-1.8,1-2.9,1.2c-0.5,0.1-1.1,0.1-1.6,0.1c-1.7,0-3.3-0.5-4.6-1.6
									c-0.6-0.4-1-1-1.4-1.5c-0.5,1.7-2,2.9-3.8,2.9h-1.2c-1.4,0-2.7-0.7-3.4-1.9c0,0,0,0,0,0c-0.9,0.9-2.6,2-5.3,2
									c-2.4,0-4-0.9-4.9-1.7c-0.1-0.1-0.1-0.1-0.2-0.2c-0.7,1-1.9,1.7-3.3,1.7h-1.2c-0.5,0-1-0.1-1.4-0.3
									c-0.4,0.2-0.9,0.3-1.4,0.3h-1.2c-0.5,0-1-0.1-1.4-0.3c-0.5,0.2-0.9,0.3-1.4,0.3h-1.2c-1.7,0-3.1-1-3.7-2.5
									c-0.5,0.5-1.1,1-1.7,1.4c-2,1.5-4.6,2.3-7.6,2.5c-0.4,0-0.9,0-1.3,0c-4.4,0-8.7-1.4-11.9-3.8c-4.1-3.1-5.6-8.1-4.4-14.8
									c0.4-2,0.9-4,1.6-6c-0.4-0.2-0.8-0.5-1.2-0.9c-0.4-0.1-0.7-0.3-1-0.5H9.3c-1.1,0-2.1-0.4-2.8-1.2c-0.7-0.7-1.2-1.8-1.2-2.8
									l0-1.9c0-2.2,1.8-3.9,4-3.9h1.6c0.6-0.3,1.2-0.5,1.9-0.5h0c0.7-0.5,1.3-0.6,1.9-0.7c0.1,0,0.1,0,0.2,0c0.7,0,1.3,0,2,0
									c0.8,0,1.7,0,2.5,0.1c2.9-3.3,6.2-6.6,10.2-9.9c1.3-1.1,2.6-2.1,4.1-3.3c0.8-0.6,1.6-0.9,2.5-0.9c1.2,0,2.3,0.5,3,1.4
									c0.5,0.6,1.1,1.8,0.9,3.4c-0.1,0.7-0.2,1.3-0.4,1.8c0,0-0.1,0.2-0.1,0.2c-0.2,0.7-0.4,1.3-0.7,2.1l0,0
									c-0.2,0.7-0.6,2-1.8,2.9c-2.2,1.7-4.1,3.3-5.8,4.8c2.1,0.9,3.9,1.9,5.4,3.1v-1.7c0-2.2,1.8-4,4-4h10.4
									c1.8,0,3.5,0.4,4.9,1.2c0.7-0.8,1.7-1.2,2.9-1.2h10.4c2,0,3.8,0.5,5.3,1.5c0.5,0.3,0.9,0.7,1.3,1.1c0.1-0.1,0.1-0.1,0.2-0.2
									c1.5-1.3,3.4-2.2,5.8-2.5c0,0,0.1,0,0.1,0c0.7-0.1,1.1-0.1,1.4-0.1c0,0,0.1,0,0.1,0c0.3,0,0.5,0,0.6,0c1.5,0,3,0.3,4.4,0.7
									c1.4,0.5,2.6,1.2,3.8,2.1c1,0.7,1.5,1.9,1.5,3.1v5.5c0,0.6-0.1,1.1-0.3,1.6c0.2,0.3,0.3,0.6,0.5,0.9c0,0,0,0.1,0,0.1
									c0.4,1,0.6,2,0.6,3.1c0,1.3-0.3,2.6-0.9,3.8c0.1,0,0.3,0,0.5,0h1.2c1.2,0,2.2,0.5,2.9,1.3c0,0,0.1-0.1,0.1-0.1
									c-2.1-2.3-3.2-5.3-3.2-8.6c0-0.7,0-1.4,0.1-2c0.1-0.8,0.3-1.4,0.4-2.1c0.8-2.9,2.5-5.2,5-7c2.4-1.7,5.2-2.6,8.3-2.6
									c1,0,2.1,0.1,3.1,0.3c1.1,0.2,2.1,0.5,3.2,0.9c0.1,0,0.1,0,0.2,0.1l0.9,0.4c0.9,0.4,1.6,1.1,2,2l0.4-0.9
									c0.6-1.5,2-2.4,3.6-2.4h6.6c1.6,0,3,1,3.6,2.4l0.2,0.6c0.4-1.7,2-3,3.8-3h10.5c1.8,0,3.5,0.4,4.9,1.2
									c0.7-0.8,1.7-1.2,2.9-1.2h6.7c1.5,0,2.8,0.8,3.5,2.1c0.7-1.2,2-2.1,3.5-2.1h13.1c1,0,2,0.4,2.7,1c1.1-0.6,2.4-1,3.8-1.2
									c0,0,0.1,0,0.1,0c0.6-0.1,1.1-0.1,1.5-0.1c0,0,0.1,0,0.1,0c0.3,0,0.5,0,0.6,0c1.5,0,3,0.3,4.4,0.7c1.2,0.4,2.4,1.1,3.5,1.9
									c1.2-1.1,2.9-1.8,4.7-1.8C207.6,24.9,210.6,27.9,210.6,31.8z"/>
							</g>
						</g>
					</g>
				</g>
			</g>
		</g>
	</g>
	<g>
		<g>
			<g>
				<g>
					<path class="st1" d="M40.9,50.4H42v0.8c0.3-0.3,0.5-0.4,0.7-0.6c0.4-0.2,0.8-0.3,1.3-0.3c0.5,0,1,0.1,1.3,0.3
						c0.2,0.1,0.4,0.3,0.5,0.5c0.2-0.3,0.6-0.5,0.9-0.6c0.3-0.1,0.7-0.2,1.2-0.2c0.9,0,1.6,0.3,1.9,0.8c0.2,0.3,0.3,0.6,0.3,1.1v3.5
						h-1.2V52c0-0.3-0.1-0.6-0.3-0.7c-0.2-0.1-0.5-0.2-0.8-0.2c-0.5,0-0.8,0.1-1.2,0.4c-0.3,0.2-0.5,0.6-0.5,1.2v3h-1.2v-3.4
						c0-0.4-0.1-0.6-0.2-0.8c-0.2-0.2-0.5-0.4-1-0.4c-0.4,0-0.8,0.1-1.2,0.4c-0.4,0.3-0.5,0.7-0.5,1.4v2.8h-1.2V50.4z"/>
					<path class="st1" d="M58.5,55.1c-0.7,0-1.2-0.2-1.5-0.6c-0.3-0.4-0.5-0.8-0.5-1.4c0-0.6,0.2-1.1,0.5-1.5
						c0.3-0.4,0.8-0.6,1.5-0.6c0.8,0,1.3,0.2,1.7,0.7c0.2,0.3,0.3,0.7,0.3,1.2c0,0.5-0.1,1-0.4,1.5C59.8,54.9,59.3,55.1,58.5,55.1z
						 M58.6,50.3c-1,0-1.8,0.3-2.4,0.8c-0.6,0.5-0.9,1.2-0.9,2.1c0,0.8,0.3,1.5,0.8,2c0.6,0.5,1.3,0.7,2.3,0.7c1.1,0,2-0.3,2.5-0.8
						c0.5-0.6,0.8-1.3,0.8-2.1c0-0.9-0.3-1.5-0.9-2C60.2,50.5,59.5,50.3,58.6,50.3z"/>
					<path class="st1" d="M67.2,50.4h1.1v0.9c0.1-0.2,0.3-0.4,0.7-0.6c0.4-0.3,0.8-0.4,1.2-0.4c0,0,0,0,0.1,0c0.1,0,0.1,0,0.3,0v0.9
						c-0.1,0-0.1,0-0.2,0c-0.1,0-0.1,0-0.2,0c-0.6,0-1,0.1-1.4,0.4c-0.3,0.3-0.5,0.6-0.5,1v3h-1.2V50.4z"/>
					<path class="st1" d="M76.4,52.6c0-0.4,0.2-0.8,0.6-1.1c0.4-0.3,0.8-0.4,1.3-0.4c0.7,0,1.3,0.2,1.6,0.6c0.2,0.2,0.3,0.5,0.3,0.9
						H76.4z M78.3,50.3c-1,0-1.7,0.3-2.3,0.8c-0.6,0.5-0.9,1.2-0.9,2c0,0.9,0.3,1.5,0.9,2c0.6,0.5,1.3,0.7,2.2,0.7
						c0.4,0,0.7,0,0.9-0.1c0.5-0.1,1-0.3,1.3-0.5c0.2-0.1,0.4-0.3,0.6-0.6c0.2-0.2,0.3-0.5,0.3-0.6h-1.1c-0.1,0.2-0.2,0.4-0.4,0.6
						c-0.4,0.3-0.8,0.5-1.4,0.5c-0.6,0-1.1-0.2-1.4-0.5c-0.3-0.3-0.5-0.8-0.5-1.3h5c0-0.5,0-0.9-0.1-1.1c-0.1-0.4-0.2-0.7-0.5-0.9
						c-0.2-0.3-0.6-0.5-1-0.7C79.3,50.4,78.8,50.3,78.3,50.3z"/>
					<path class="st1" d="M94.7,48.9h1.2v1.4h1.1v0.7h-1.1v3.4c0,0.2,0.1,0.3,0.2,0.4c0.1,0,0.2,0,0.5,0c0.1,0,0.1,0,0.2,0
						c0.1,0,0.1,0,0.2,0v0.7c-0.1,0-0.3,0-0.4,0.1c-0.1,0-0.3,0-0.5,0c-0.5,0-0.9-0.1-1.1-0.3c-0.2-0.2-0.3-0.5-0.3-0.8v-3.5h-0.9
						v-0.7h0.9V48.9z"/>
					<path class="st1" d="M102,48.4h1.2v2.7c0.3-0.3,0.5-0.4,0.7-0.5c0.4-0.2,0.8-0.3,1.4-0.3c1,0,1.7,0.3,2,0.8
						c0.2,0.3,0.3,0.7,0.3,1.2v3.4h-1.2v-3.3c0-0.4-0.1-0.7-0.2-0.8c-0.2-0.3-0.6-0.4-1.2-0.4c-0.5,0-0.9,0.1-1.3,0.4
						c-0.4,0.2-0.6,0.7-0.6,1.4v2.8H102V48.4z"/>
					<path class="st1" d="M114.3,54.3c0-0.3,0.2-0.6,0.5-0.7c0.2-0.1,0.5-0.2,1-0.2l0.7-0.1c0.2,0,0.4,0,0.7-0.1
						c0.2,0,0.4-0.1,0.6-0.2v0.7c0,0.5-0.3,0.9-1,1.2c-0.4,0.1-0.8,0.2-1.2,0.2c-0.3,0-0.6-0.1-0.9-0.2
						C114.4,54.7,114.3,54.5,114.3,54.3z M115.2,52.7c-0.6,0.1-1.2,0.2-1.6,0.5c-0.4,0.3-0.6,0.7-0.6,1.1c0,0.4,0.2,0.8,0.6,1.1
						c0.4,0.3,0.9,0.4,1.6,0.4c0.5,0,1-0.1,1.5-0.3c0.4-0.2,0.8-0.4,1-0.6c0,0.2,0.1,0.4,0.2,0.5c0.2,0.2,0.5,0.3,0.9,0.3
						c0.2,0,0.3,0,0.4,0c0.1,0,0.2,0,0.4-0.1V55c-0.1,0-0.1,0-0.2,0c-0.1,0-0.1,0-0.2,0c-0.2,0-0.3,0-0.3-0.1
						c-0.1-0.1-0.1-0.1-0.1-0.2v-3c0-0.5-0.3-0.9-0.8-1.1c-0.5-0.2-1.2-0.4-2-0.4c-0.7,0-1.3,0.1-1.8,0.4c-0.5,0.3-0.8,0.7-0.8,1.3
						h1.1c0-0.3,0.1-0.5,0.3-0.6c0.3-0.2,0.7-0.4,1.3-0.4c0.5,0,0.9,0.1,1.2,0.2c0.3,0.1,0.4,0.3,0.4,0.6c0,0.1,0,0.3-0.1,0.3
						c-0.1,0.1-0.3,0.2-0.5,0.3L115.2,52.7z"/>
					<path class="st1" d="M124.7,50.4h1.1v0.8c0.3-0.3,0.7-0.5,1-0.7c0.4-0.1,0.8-0.2,1.2-0.2c1,0,1.6,0.3,2,0.8
						c0.2,0.3,0.3,0.7,0.3,1.2v3.4h-1.2v-3.3c0-0.3-0.1-0.6-0.2-0.8c-0.2-0.3-0.6-0.5-1.1-0.5c-0.3,0-0.5,0-0.7,0.1
						c-0.3,0.1-0.6,0.2-0.8,0.4c-0.2,0.2-0.3,0.3-0.4,0.5c-0.1,0.2-0.1,0.4-0.1,0.8v2.7h-1.2V50.4z"/>
					<path class="st1" d="M144.3,54c0,0.3,0.1,0.5,0.3,0.7c0.3,0.3,0.8,0.4,1.5,0.4c0.4,0,0.8-0.1,1.1-0.2c0.3-0.1,0.5-0.4,0.5-0.6
						c0-0.2-0.1-0.4-0.4-0.5c-0.2-0.1-0.5-0.2-1-0.2l-0.9-0.2c-0.6-0.1-1-0.2-1.3-0.4c-0.5-0.2-0.8-0.6-0.8-1c0-0.5,0.2-0.9,0.7-1.2
						c0.5-0.3,1.1-0.5,1.9-0.5c1,0,1.8,0.2,2.3,0.7c0.3,0.3,0.4,0.6,0.4,0.9h-1.1c0-0.2-0.1-0.4-0.3-0.5c-0.3-0.2-0.7-0.3-1.4-0.3
						c-0.5,0-0.8,0.1-1,0.2c-0.2,0.1-0.3,0.3-0.3,0.5c0,0.2,0.2,0.4,0.5,0.5c0.2,0.1,0.4,0.2,0.8,0.2l0.8,0.1
						c0.8,0.2,1.4,0.3,1.7,0.4c0.5,0.2,0.7,0.6,0.7,1.1c0,0.5-0.2,0.9-0.7,1.2c-0.5,0.3-1.2,0.5-2.1,0.5c-1,0-1.8-0.2-2.2-0.5
						c-0.4-0.4-0.7-0.8-0.7-1.3H144.3z"/>
					<path class="st1" d="M155.1,54.3c0-0.3,0.2-0.6,0.5-0.7c0.2-0.1,0.5-0.2,1-0.2l0.7-0.1c0.2,0,0.4,0,0.7-0.1
						c0.2,0,0.4-0.1,0.5-0.2v0.7c0,0.5-0.3,0.9-1,1.2c-0.4,0.1-0.8,0.2-1.2,0.2c-0.3,0-0.6-0.1-0.9-0.2
						C155.2,54.7,155.1,54.5,155.1,54.3z M156,52.7c-0.7,0.1-1.2,0.2-1.6,0.5c-0.4,0.3-0.6,0.7-0.6,1.1c0,0.4,0.2,0.8,0.6,1.1
						c0.4,0.3,0.9,0.4,1.6,0.4c0.5,0,1-0.1,1.5-0.3c0.4-0.2,0.8-0.4,1-0.6c0,0.2,0.1,0.4,0.2,0.5c0.2,0.2,0.5,0.3,0.9,0.3
						c0.2,0,0.3,0,0.4,0c0.1,0,0.2,0,0.4-0.1V55c-0.1,0-0.1,0-0.2,0c-0.1,0-0.1,0-0.2,0c-0.2,0-0.3,0-0.3-0.1c0-0.1-0.1-0.1-0.1-0.2
						v-3c0-0.5-0.3-0.9-0.8-1.1c-0.5-0.2-1.2-0.4-2-0.4c-0.7,0-1.3,0.1-1.8,0.4c-0.5,0.3-0.8,0.7-0.8,1.3h1.1c0-0.3,0.1-0.5,0.3-0.6
						c0.3-0.2,0.7-0.4,1.3-0.4c0.5,0,0.9,0.1,1.2,0.2c0.3,0.1,0.4,0.3,0.4,0.6c0,0.1,0,0.3-0.1,0.3c-0.1,0.1-0.3,0.2-0.5,0.3
						L156,52.7z"/>
					<path class="st1" d="M166,48.8c0.3-0.3,0.8-0.4,1.6-0.4c0.1,0,0.1,0,0.2,0c0.1,0,0.2,0,0.3,0v0.8c-0.1,0-0.2,0-0.3,0
						c-0.1,0-0.1,0-0.2,0c-0.3,0-0.6,0.1-0.6,0.2c-0.1,0.1-0.1,0.5-0.1,1.1h1.1v0.7h-1.1v4.5h-1.2v-4.5h-1v-0.7h1v-0.8
						C165.8,49.2,165.9,49,166,48.8z"/>
					<path class="st1" d="M174,52.6c0-0.4,0.2-0.8,0.6-1.1c0.4-0.3,0.8-0.4,1.3-0.4c0.7,0,1.3,0.2,1.6,0.6c0.2,0.2,0.3,0.5,0.3,0.9
						H174z M176,50.3c-1,0-1.8,0.3-2.3,0.8c-0.6,0.5-0.9,1.2-0.9,2c0,0.9,0.3,1.5,0.9,2c0.6,0.5,1.3,0.7,2.2,0.7
						c0.3,0,0.7,0,0.9-0.1c0.5-0.1,0.9-0.3,1.3-0.5c0.2-0.1,0.4-0.3,0.6-0.6c0.2-0.2,0.3-0.5,0.3-0.6h-1.1c-0.1,0.2-0.2,0.4-0.4,0.6
						c-0.4,0.3-0.8,0.5-1.4,0.5c-0.6,0-1.1-0.2-1.4-0.5c-0.3-0.3-0.5-0.8-0.5-1.3h5c0-0.5,0-0.9-0.1-1.1c-0.1-0.4-0.2-0.7-0.5-0.9
						c-0.2-0.3-0.6-0.5-1-0.7C176.9,50.4,176.4,50.3,176,50.3z"/>
					<path class="st1" d="M184.5,48.8h1.3v1.6h1.2v0.8h-1.2v3.7c0,0.2,0.1,0.3,0.3,0.4c0.1,0,0.3,0,0.5,0c0.1,0,0.1,0,0.2,0
						c0.1,0,0.2,0,0.2,0v0.8c-0.1,0-0.3,0-0.5,0.1c-0.2,0-0.3,0-0.5,0c-0.6,0-1-0.1-1.2-0.3c-0.2-0.2-0.3-0.5-0.3-0.9v-3.8h-1v-0.8
						h1V48.8z"/>
					<path class="st1" d="M196.3,50.4h1.3c-0.2,0.3-0.5,1.1-1.1,2.3c-0.4,0.9-0.8,1.6-1.1,2.2c-0.7,1.3-1.1,2.2-1.4,2.5
						c-0.3,0.3-0.8,0.4-1.4,0.4c-0.2,0-0.3,0-0.4,0c-0.1,0-0.2,0-0.3-0.1v-0.8c0.2,0,0.3,0.1,0.4,0.1c0.1,0,0.2,0,0.2,0
						c0.2,0,0.4,0,0.5-0.1c0.1-0.1,0.2-0.1,0.3-0.2c0,0,0.1-0.2,0.2-0.4c0.1-0.2,0.2-0.4,0.3-0.5l-2.5-5.4h1.3l1.9,4.3L196.3,50.4z"
						/>
					<g>
						<g>
							<path class="st1" d="M47.6,35.4V32h1.2c0.9,0,1.5,0.4,1.7,1.2c0.1,0.2,0.1,0.4,0.1,0.6c0,0.5-0.2,0.9-0.5,1.2
								c-0.3,0.3-0.8,0.5-1.3,0.5H47.6z M52,46.4c1.5,0,2.7-0.3,3.6-0.9c0.9-0.6,1.6-1.4,1.9-2.4c0.2-0.7,0.3-1.3,0.3-1.9
								c0-2-0.9-3.4-2.8-4.3l-0.5-0.2l-0.2-0.1l0.2-0.1c0.6-0.4,1.1-0.8,1.4-1.4c0.3-0.6,0.5-1.3,0.5-2c0-0.5-0.1-1.1-0.3-1.7
								c-0.3-0.9-0.9-1.6-1.8-2.2c-0.9-0.6-1.9-0.8-3.2-0.8H40.8v18.1H52z M47.6,42.8V39h1.5c1.1,0,1.8,0.4,2.1,1.3
								c0,0.1,0.1,0.1,0.1,0.3c0,0.1,0,0.3,0,0.4c0,0.6-0.2,1-0.5,1.3c-0.4,0.3-0.8,0.5-1.4,0.5H47.6z"/>
							<path class="st1" d="M65.8,35.4V32H67c0.9,0,1.5,0.4,1.7,1.2c0,0.2,0.1,0.4,0.1,0.6c0,0.5-0.2,0.9-0.5,1.2
								c-0.3,0.3-0.7,0.5-1.3,0.5H65.8z M70.2,46.4c1.5,0,2.7-0.3,3.6-0.9c1-0.6,1.6-1.4,1.9-2.4c0.2-0.7,0.3-1.3,0.3-1.9
								c0-2-0.9-3.4-2.8-4.3l-0.5-0.2l-0.2-0.1l0.2-0.1c0.6-0.4,1.1-0.8,1.4-1.4c0.3-0.6,0.5-1.3,0.5-2c0-0.5-0.1-1.1-0.3-1.7
								c-0.3-0.9-0.9-1.6-1.8-2.2c-0.9-0.6-1.9-0.8-3.2-0.8H59.1v18.1H70.2z M65.8,42.8V39h1.5c1.1,0,1.8,0.4,2.1,1.3
								c0,0.1,0,0.1,0.1,0.3c0,0.1,0,0.3,0,0.4c0,0.6-0.2,1-0.5,1.3c-0.3,0.3-0.8,0.5-1.4,0.5H65.8z"/>
							<path class="st1" d="M77.2,45.3v-5c0.2,0.1,0.3,0.3,0.5,0.4c0.2,0.2,0.4,0.3,0.6,0.4c0.6,0.4,1.2,0.6,1.9,0.8
								c0.7,0.2,1.3,0.3,1.8,0.3c0.5,0,0.9-0.1,1.2-0.2c0.5-0.2,0.8-0.6,0.8-1.1c0-0.3-0.1-0.6-0.4-0.9c-0.2-0.2-0.5-0.4-0.9-0.6
								l-2.1-1.1c-1.1-0.6-1.9-1.2-2.4-2.1c-0.6-0.8-0.8-1.7-0.8-2.7c0-0.3,0-0.6,0.1-0.9c0.2-1.2,0.7-2.2,1.6-3
								c0.9-0.8,2.2-1.4,3.8-1.6C83.4,28,83.7,28,84,28c0.2,0,0.4,0,0.6,0c1.1,0,2.1,0.2,3.1,0.5c1,0.3,1.9,0.9,2.8,1.5v5.5
								c-0.3-0.4-0.6-0.8-0.9-1.1c-0.7-0.6-1.3-1.1-2-1.4c-0.7-0.3-1.3-0.5-1.8-0.5c-0.3,0-0.5,0-0.6,0.1c-0.7,0.2-1.1,0.6-1.1,1.2
								c0,0.2,0.1,0.4,0.2,0.6c0.1,0.2,0.3,0.4,0.5,0.6c0.2,0.2,0.5,0.4,0.9,0.6l0.6,0.4l1.7,0.9c0.7,0.4,1.3,0.8,1.8,1.2
								c0.4,0.4,0.8,0.9,1,1.4c0.2,0.5,0.3,1.1,0.3,1.7c0,0.9-0.2,1.7-0.7,2.5c-0.5,0.8-1.1,1.4-2,1.9c-1.4,0.8-3.2,1.2-5.3,1.2
								c-0.2,0-0.5,0-0.9,0c-0.3,0-0.6,0-0.7-0.1C80,46.5,78.6,46,77.2,45.3z"/>
							<path class="st2" d="M115.4,29.3v5.1l-0.7-0.4c-0.7-0.3-1.3-0.5-1.9-0.7c-0.6-0.1-1.2-0.2-1.8-0.2c-1.2,0-2.2,0.3-3,0.8
								c-0.8,0.5-1.3,1.3-1.5,2.2c-0.1,0.4-0.2,0.8-0.2,1.3c0,1.2,0.4,2.2,1.3,3c0.9,0.8,2.1,1.2,3.6,1.2c1.1,0,2.3-0.4,3.6-1.1
								l0.6-0.4v5.2l-0.8,0.4c-0.9,0.4-1.7,0.6-2.5,0.8c-0.8,0.2-1.7,0.3-2.6,0.3c-2.9,0-5.3-0.9-7.1-2.6c-1.8-1.7-2.8-3.9-2.8-6.5
								c0-0.5,0-1,0.1-1.5c0.1-0.5,0.2-1,0.3-1.5c0.6-2,1.7-3.6,3.4-4.9c1.7-1.2,3.7-1.8,6-1.8c0.8,0,1.6,0.1,2.4,0.2
								c0.8,0.2,1.7,0.4,2.6,0.7L115.4,29.3z"/>
							<path class="st2" d="M124.9,39.4l1.2-3.7c0-0.2,0.1-0.3,0.1-0.5c0-0.2,0.1-0.3,0.1-0.4l0-0.4l0,0.8l0.1,0.2l0.1,0.4l1.1,3.7
								H124.9z M122.7,46.4l1-2.9h5.2l0.9,2.9h7.3l-7.6-18.1H123l-7.6,18.1H122.7z"/>
							<path class="st2" d="M144,35.4V32h1.2c0.9,0,1.5,0.4,1.7,1.2c0.1,0.2,0.1,0.4,0.1,0.6c0,0.5-0.2,0.9-0.5,1.2
								c-0.3,0.3-0.7,0.5-1.3,0.5H144z M148.4,46.4c1.5,0,2.7-0.3,3.6-0.9c1-0.6,1.6-1.4,1.9-2.4c0.2-0.7,0.3-1.3,0.3-1.9
								c0-2-0.9-3.4-2.8-4.3l-0.4-0.2l-0.2-0.1l0.2-0.1c0.6-0.4,1.1-0.8,1.4-1.4c0.3-0.6,0.5-1.3,0.5-2c0-0.5-0.1-1.1-0.3-1.7
								c-0.3-0.9-0.9-1.6-1.8-2.2c-0.9-0.6-1.9-0.8-3.2-0.8h-10.4v18.1H148.4z M144,42.8V39h1.5c1.1,0,1.8,0.4,2.1,1.3
								c0,0.1,0,0.1,0.1,0.3c0,0.1,0,0.3,0,0.4c0,0.6-0.2,1-0.5,1.3c-0.3,0.3-0.8,0.5-1.4,0.5H144z"/>
							<path class="st2" d="M155.6,46.4V28.3h6.7v13.5h6.3v4.7H155.6z"/>
							<path class="st2" d="M169.2,46.4V28.3h13.1v4.5h-6.4V35h5.7v4.4h-5.7v2.5h6.6v4.5H169.2z"/>
							<path class="st2" d="M183.8,45.3v-5c0.2,0.1,0.3,0.3,0.5,0.4c0.2,0.2,0.4,0.3,0.6,0.4c0.6,0.4,1.2,0.6,1.9,0.8
								c0.7,0.2,1.3,0.3,1.8,0.3c0.5,0,0.9-0.1,1.2-0.2c0.5-0.2,0.8-0.6,0.8-1.1c0-0.3-0.1-0.6-0.4-0.9c-0.2-0.2-0.5-0.4-0.9-0.6
								l-2.1-1.1c-1.1-0.6-1.9-1.2-2.4-2.1c-0.6-0.8-0.8-1.7-0.8-2.7c0-0.3,0-0.6,0.1-0.9c0.2-1.2,0.7-2.2,1.6-3
								c0.9-0.8,2.2-1.4,3.8-1.6c0.5-0.1,0.9-0.1,1.1-0.1c0.2,0,0.4,0,0.5,0c1.1,0,2.1,0.2,3.1,0.5c1,0.3,1.9,0.9,2.8,1.5v5.5
								c-0.3-0.4-0.6-0.8-0.9-1.1c-0.6-0.6-1.3-1.1-2-1.4c-0.7-0.3-1.3-0.5-1.8-0.5c-0.3,0-0.5,0-0.6,0.1c-0.7,0.2-1.1,0.6-1.1,1.2
								c0,0.2,0.1,0.4,0.2,0.6c0.1,0.2,0.3,0.4,0.5,0.6c0.2,0.2,0.5,0.4,0.9,0.6l0.6,0.4l1.7,0.9c0.7,0.4,1.3,0.8,1.8,1.2
								c0.4,0.4,0.8,0.9,1,1.4c0.2,0.5,0.3,1.1,0.3,1.7c0,0.9-0.2,1.7-0.7,2.5c-0.4,0.8-1.1,1.4-2,1.9c-1.4,0.8-3.2,1.2-5.3,1.2
								c-0.2,0-0.5,0-0.9,0c-0.3,0-0.6,0-0.7-0.1C186.6,46.5,185.1,46,183.8,45.3z"/>
							<g>
								<polygon class="st2" points="9.3,29.4 12.6,29.4 12.1,31.3 9.3,31.3 								"/>
								<path class="st1" d="M19.8,33.2c1.8,0.2,3.5,0.5,5.2,1c3.1,0.8,6.3,2.1,8.8,4.4c2.4,2.2,4,5.4,3.5,8.7
									c-0.2,0.3-0.3,0.6-0.5,0.9c-0.5,0.7-1,1.3-1.6,1.8c-1.3,1.1-3,1.7-4.6,2c-3.6,0.5-7.8-0.1-10.9-2c-1.5-0.9-2.9-2.2-3.6-3.9
									c-0.8-1.9-0.9-4.2-0.5-6.2c0,0,0-0.1,0-0.1c0,0,0,0,0-0.1c0.1-0.4,0.3-0.7,0.5-1.1c0.6-1.1,1.2-2.2,2-3.2
									C18.6,34.7,19.2,34,19.8,33.2z M12.2,30.9L12,32l1.8,0c-0.1,0.6-0.2,1.1-0.1,1.1c1.4-0.1,2.8-0.1,4.3,0
									c-1.8,3.1-3.1,6.6-3.7,10.2c-0.7,4-0.6,8.3,2.9,10.9c2.9,2.2,6.9,3.1,10.6,2.9c1.9-0.1,4-0.6,5.6-1.8c1.7-1.2,2.9-3,3.7-4.9
									c1.7-4.4,3.1-9.8,0.5-14.1C35.3,33,31.7,31,28,29.8c-1.4-0.4-2.8-0.8-4.3-1.1c3.4-3.6,7.2-6.7,11.1-9.8
									c0.2-0.2,0.4-0.8,0.5-1.1c0.2-0.6,0.4-1.2,0.6-1.9c0.1-0.5,0.3-1,0.3-1.5c0-0.1,0.1-0.5-0.1-0.3c-1.3,1-2.7,2.1-4,3.2
									c-4,3.3-7.7,6.9-11,11c-2-0.2-4-0.3-6.1-0.2c-0.1,0-0.4,0.4-0.5,0.7l-1.8,0l-0.2,0.7"/>
							</g>
						</g>
					</g>
				</g>
			</g>
			<path class="st1" d="M201.2,31.8c0-1.4,1.1-2.5,2.5-2.5c1.4,0,2.4,1.1,2.4,2.5c0,1.5-1.1,2.5-2.4,2.5
				C202.3,34.3,201.2,33.3,201.2,31.8z M203.6,34.8c1.6,0,3-1.3,3-3c0-1.7-1.4-3-3-3c-1.7,0-3.1,1.3-3.1,3
				C200.6,33.5,202,34.8,203.6,34.8z M203,32h0.6l0.9,1.5l0.6,0l-1-1.5c0.5-0.1,0.9-0.3,0.9-1c0-0.7-0.4-1-1.2-1l-1.3,0l0,3.5l0.5,0
				L203,32z M203,31.6v-1.1h0.7c0.4,0,0.8,0.1,0.8,0.5c0,0.5-0.4,0.6-0.8,0.6H203z"/>
		</g>
	</g>
</g>
</svg>
